<svg xmlns="http://www.w3.org/2000/svg" viewBox="0 0 100 100">
  <defs>
    <linearGradient id="grad" x1="0%" y1="0%" x2="100%" y2="100%">
      <stop offset="0%" style="stop-color:#06b6d4;stop-opacity:1" />
      <stop offset="100%" style="stop-color:#10b981;stop-opacity:1" />
    </linearGradient>
  </defs>
  <rect width="100" height="100" rx="20" fill="url(#grad)"/>
  <path d="M50 25 C35 25 25 35 25 50 C25 65 35 75 50 75 C65 75 75 65 75 50 C75 35 65 25 50 25 Z M50 32 C61 32 68 39 68 50 C68 61 61 68 50 68 C39 68 32 61 32 50 C32 39 39 32 50 32 Z" fill="white" opacity="0.3"/>
  <rect x="46" y="40" width="8" height="20" rx="2" fill="white"/>
  <circle cx="50" cy="35" r="4" fill="white"/>
</svg>
